<svg width="16" height="15" viewBox="0 0 16 15" fill="currentcolor" xmlns="http://www.w3.org/2000/svg">
<symbol id="icon" viewBox="0 0 16 16">
<path d="M8 9.84375C9.03553 9.84375 9.875 9.00428 9.875 7.96875C9.875 6.93322 9.03553 6.09375 8 6.09375C6.96447 6.09375 6.125 6.93322 6.125 7.96875C6.125 9.00428 6.96447 9.84375 8 9.84375Z" />
<path d="M13.8594 4.21875H11.4277C11.3398 4.21875 11.2309 4.16191 11.1459 4.07227L10.3467 2.81836C10.0215 2.34375 9.875 2.34375 9.34766 2.34375H6.65234C6.125 2.34375 5.94922 2.34375 5.6542 2.81865L4.8541 4.07227C4.78906 4.14316 4.69766 4.21875 4.60156 4.21875V3.75C4.60156 3.68784 4.57687 3.62823 4.53292 3.58427C4.48896 3.54032 4.42935 3.51562 4.36719 3.51562H3.19531C3.13315 3.51562 3.07354 3.54032 3.02958 3.58427C2.98563 3.62823 2.96094 3.68784 2.96094 3.75V4.21875H2.14062C1.95414 4.21875 1.7753 4.29283 1.64344 4.42469C1.51158 4.55655 1.4375 4.73539 1.4375 4.92188V11.9531C1.4375 12.1396 1.51158 12.3184 1.64344 12.4503C1.7753 12.5822 1.95414 12.6562 2.14062 12.6562H13.8594C14.0459 12.6562 14.2247 12.5822 14.3566 12.4503C14.4884 12.3184 14.5625 12.1396 14.5625 11.9531V4.92188C14.5625 4.73539 14.4884 4.55655 14.3566 4.42469C14.2247 4.29283 14.0459 4.21875 13.8594 4.21875ZM8.13213 10.7783C7.56525 10.8049 7.00357 10.6595 6.5209 10.361C6.03823 10.0625 5.65715 9.62496 5.42773 9.10589C5.19831 8.58682 5.13128 8.0105 5.23546 7.45263C5.33964 6.89477 5.61014 6.38147 6.01143 5.98018C6.41272 5.57889 6.92602 5.30839 7.48388 5.20421C8.04175 5.10003 8.61807 5.16706 9.13714 5.39648C9.65621 5.6259 10.0937 6.00698 10.3922 6.48965C10.6907 6.97232 10.8362 7.534 10.8096 8.10088C10.776 8.80015 10.4831 9.46183 9.9881 9.95685C9.49308 10.4519 8.8314 10.7447 8.13213 10.7783Z" />
</symbol>
</svg>
