<svg xmlns="http://www.w3.org/2000/svg" width="30" height="30" viewBox="0 0 30 30" fill="none">
  <symbol id="icon" viewBox="0 0 30 30">
    <path fill-rule="evenodd" clip-rule="evenodd"
      d="M6.75579 6.52257C9.57772 4.02148 13.2266 2.75 16.7231 2.75C19.7187 2.75 22.656 3.68562 24.8721 5.63605L24.8736 5.63735C28.0425 8.43744 28.0428 13.0769 24.8746 15.8774C24.8742 15.8777 24.8739 15.878 24.8736 15.8783L23.1001 17.4528C23.1 17.4528 23.1001 17.4527 23.1001 17.4528C22.8648 17.6618 22.8076 17.8565 22.8076 17.9883C22.8076 18.1201 22.8647 18.3147 23.1001 18.5238L23.1032 18.5265C23.2596 18.6666 23.3346 18.712 23.4016 18.742C23.4821 18.7781 23.6153 18.8199 23.9233 18.8708L23.9266 18.8713C23.953 18.8758 23.9816 18.8805 24.0121 18.8854C24.446 18.956 25.2749 19.0907 25.8804 19.6504L25.8841 19.6538C26.4572 20.1888 26.7518 20.9692 26.7759 21.7148C26.8004 22.4735 26.5467 23.3207 25.8588 23.9283C23.3711 26.1396 19.922 27.25 16.477 27.25H16.3702C12.9217 27.2251 9.39603 26.0876 6.75621 23.7532C1.41343 19.0311 1.41329 11.2448 6.75579 6.52257ZM16.7231 4.75C13.6927 4.75 10.5215 5.85723 8.08179 8.01981L8.0807 8.02077C3.63846 11.947 3.63846 18.3284 8.0807 22.2546C10.3033 24.2201 13.3387 25.2272 16.381 25.25H16.477C19.5236 25.25 22.4723 24.2632 24.5313 22.4324L24.5344 22.4297C24.689 22.2933 24.7863 22.0689 24.7769 21.7793C24.7672 21.4776 24.6441 21.2336 24.5212 21.1175C24.3956 21.0029 24.1627 20.9395 23.5953 20.8437C23.2302 20.7833 22.8982 20.708 22.5837 20.5671C22.256 20.4202 22.0063 20.2289 21.7706 20.018C21.1689 19.483 20.8076 18.767 20.8076 17.9883C20.8076 17.209 21.1695 16.4925 21.772 15.9574L23.5475 14.3811L23.5493 14.3795C25.8173 12.3755 25.8176 9.14111 23.55 7.13675C21.7584 5.56025 19.3171 4.75 16.7231 4.75Z"
    />
    <path
      d="M8.4375 14.0625C9.47303 14.0625 10.3125 13.223 10.3125 12.1875C10.3125 11.152 9.47303 10.3125 8.4375 10.3125C7.40197 10.3125 6.5625 11.152 6.5625 12.1875C6.5625 13.223 7.40197 14.0625 8.4375 14.0625Z"
    />
    <path
      d="M8.90625 20.0977C9.94178 20.0977 10.7812 19.2582 10.7812 18.2227C10.7812 17.1871 9.94178 16.3477 8.90625 16.3477C7.87072 16.3477 7.03125 17.1871 7.03125 18.2227C7.03125 19.2582 7.87072 20.0977 8.90625 20.0977Z"
    />
    <path
      d="M13.125 10.3125C14.1605 10.3125 15 9.47303 15 8.4375C15 7.40197 14.1605 6.5625 13.125 6.5625C12.0895 6.5625 11.25 7.40197 11.25 8.4375C11.25 9.47303 12.0895 10.3125 13.125 10.3125Z"
    />
    <path
      d="M15 24.3164C16.5533 24.3164 17.8125 23.0572 17.8125 21.5039C17.8125 19.9506 16.5533 18.6914 15 18.6914C13.4467 18.6914 12.1875 19.9506 12.1875 21.5039C12.1875 23.0572 13.4467 24.3164 15 24.3164Z"
    />
    <path
      d="M19.2188 10.3125C20.2543 10.3125 21.0938 9.47303 21.0938 8.4375C21.0938 7.40197 20.2543 6.5625 19.2188 6.5625C18.1832 6.5625 17.3438 7.40197 17.3438 8.4375C17.3438 9.47303 18.1832 10.3125 19.2188 10.3125Z"
    />
  </symbol>
</svg>