<svg width="26" height="25" viewBox="0 0 26 25" fill="none" xmlns="http://www.w3.org/2000/svg">
  <symbol id="icon" viewBox="0 0 26 25">
    <path
      d="M11.3817 8.70552C10.7806 8.10448 9.80624 8.1044 9.2053 8.70535C8.60435 9.30629 8.60443 10.2807 9.20547 10.8817L20.0869 21.7632C20.6879 22.3642 21.6623 22.3643 22.2633 21.7633C22.8642 21.1624 22.8642 20.188 22.2631 19.587L11.3817 8.70552Z"
      stroke="" stroke-miterlimit="10" fill="transparent" />
    <path
      d="M9.20993 8.70993C9.06644 8.85339 8.95261 9.02371 8.87495 9.21117C8.79729 9.39863 8.75732 9.59955 8.75732 9.80246C8.75732 10.0054 8.79729 10.2063 8.87495 10.3937C8.95261 10.5812 9.06644 10.7515 9.20993 10.895L11.4008 13.0859L13.5859 10.9008L11.395 8.70993C11.2515 8.56644 11.0812 8.45261 10.8937 8.37495C10.7063 8.29729 10.5054 8.25732 10.3025 8.25732C10.0995 8.25732 9.89863 8.29729 9.71117 8.37495C9.52371 8.45261 9.35339 8.56644 9.20993 8.70993Z"
      fill="" stroke="transparent" />
    <path
      d="M2.84375 9.375H5.1875M4.90332 4.40332L6.56055 6.06055M9.875 2.34375V4.6875M14.8467 4.40332L13.1895 6.06055M6.56055 12.6895L4.90332 14.3467"
      stroke="" stroke-miterlimit="10" stroke-linecap="round" fill="transparent" />
  </symbol>
</svg>