<svg width="35" height="35" viewBox="0 0 35 35" fill="currentcolor" xmlns="http://www.w3.org/2000/svg">
<symbol id="icon" viewBox="0 0 35 35">
<path d="M29.2578 15.3125H19.6875C18.8173 15.3125 17.9827 14.9668 17.3673 14.3514C16.752 13.7361 16.4062 12.9015 16.4062 12.0312V2.46094C16.4062 2.38842 16.3774 2.31887 16.3262 2.26759C16.2749 2.21631 16.2053 2.1875 16.1328 2.1875H9.84375C8.68343 2.1875 7.57063 2.64844 6.75016 3.46891C5.92969 4.28938 5.46875 5.40218 5.46875 6.5625V28.4375C5.46875 29.5978 5.92969 30.7106 6.75016 31.5311C7.57063 32.3516 8.68343 32.8125 9.84375 32.8125H25.1562C26.3166 32.8125 27.4294 32.3516 28.2498 31.5311C29.0703 30.7106 29.5312 29.5978 29.5312 28.4375V15.5859C29.5312 15.5134 29.5024 15.4439 29.4512 15.3926C29.3999 15.3413 29.3303 15.3125 29.2578 15.3125ZM22.9688 26.25H12.0312C11.7412 26.25 11.463 26.1348 11.2579 25.9296C11.0527 25.7245 10.9375 25.4463 10.9375 25.1562C10.9375 24.8662 11.0527 24.588 11.2579 24.3829C11.463 24.1777 11.7412 24.0625 12.0312 24.0625H22.9688C23.2588 24.0625 23.537 24.1777 23.7421 24.3829C23.9473 24.588 24.0625 24.8662 24.0625 25.1562C24.0625 25.4463 23.9473 25.7245 23.7421 25.9296C23.537 26.1348 23.2588 26.25 22.9688 26.25ZM22.9688 20.7812H12.0312C11.7412 20.7812 11.463 20.666 11.2579 20.4609C11.0527 20.2558 10.9375 19.9776 10.9375 19.6875C10.9375 19.3974 11.0527 19.1192 11.2579 18.9141C11.463 18.709 11.7412 18.5938 12.0312 18.5938H22.9688C23.2588 18.5938 23.537 18.709 23.7421 18.9141C23.9473 19.1192 24.0625 19.3974 24.0625 19.6875C24.0625 19.9776 23.9473 20.2558 23.7421 20.4609C23.537 20.666 23.2588 20.7812 22.9688 20.7812Z"/>
<path d="M28.6576 12.8919L18.8269 3.06114C18.8077 3.04213 18.7834 3.0292 18.757 3.02397C18.7305 3.01875 18.7031 3.02145 18.6782 3.03175C18.6533 3.04205 18.632 3.05949 18.617 3.08187C18.6019 3.10424 18.5939 3.13057 18.5938 3.15752V12.0313C18.5938 12.3213 18.709 12.5995 18.9141 12.8047C19.1192 13.0098 19.3974 13.125 19.6875 13.125H28.5612C28.5882 13.1249 28.6145 13.1168 28.6369 13.1018C28.6593 13.0868 28.6767 13.0654 28.687 13.0405C28.6973 13.0156 28.7 12.9882 28.6948 12.9618C28.6896 12.9353 28.6766 12.911 28.6576 12.8919Z"/>
</symbol>
</svg>
