<svg width="30" height="40" viewBox="0 0 30 40" fill="currentcolor" xmlns="http://www.w3.org/2000/svg">
<symbol id="icon" viewBox="0 0 30 40">
<g clip-path="url(#clip0_410_616)">
<path d="M9 17.75C9 17.3358 9.33579 17 9.75 17H15V20H12V23H9V17.75Z" fill=""/>
<path fill-rule="evenodd" clip-rule="evenodd" d="M15 23H12V26H9V28.25C9 28.6642 9.33579 29 9.75 29H12V26H15V29H20.25C20.6642 29 21 28.6642 21 28.25V23H18V20H21V17.75C21 17.3358 20.6642 17 20.25 17H18V20H15V23ZM15 23V26H18V23H15Z" fill=""/>
<path fill-rule="evenodd" clip-rule="evenodd" d="M5 0C2.24219 0 0 2.24219 0 5V35C0 37.7578 2.24219 40 5 40H25C27.7578 40 30 37.7578 30 35V12.0703C30 10.7422 29.4766 9.46875 28.5391 8.53125L21.4688 1.46094C20.5312 0.523438 19.2578 0 17.9297 0H5ZM26.25 35C26.25 35.6875 25.6875 36.25 25 36.25H5C4.3125 36.25 3.75 35.6875 3.75 35V5C3.75 4.3125 4.3125 3.75 5 3.75H17.5V10C17.5 11.3828 18.6172 12.5 20 12.5H26.25V35Z" fill=""/>
</g>
<defs>
<clipPath id="clip0_410_616">
<rect width="30" height="40" fill="white"/>
</clipPath>
</defs>
</symbol>
</svg>