<svg width="60" height="60" viewBox="0 0 60 60" fill="none" xmlns="http://www.w3.org/2000/svg">
<symbol id="icon" viewBox="0 0 60 60">
<g clip-path="url(#clip0_453_2)">
<path d="M55.875 14.8008C58.2539 14.1563 60 12.0352 60 9.49219C60 7.14844 56.6484 2.41406 55.125 0.386719C54.75 -0.128906 54 -0.128906 53.625 0.386719C52.5117 1.86328 50.4492 4.74609 49.4063 7.125L49.3008 7.37109C48.9609 8.16797 48.75 8.90625 48.75 9.49219C48.75 12.5391 51.2695 15 54.375 15C54.8906 15 55.3945 14.9297 55.875 14.8008ZM46.3359 4.82813C41.6367 1.78125 36.0234 1.39698e-08 30 1.39698e-08C13.4297 1.39698e-08 0 13.4297 0 30C0 46.5703 13.4297 60 30 60C46.5703 60 60 46.5703 60 30C60 25.8047 59.1445 21.8086 57.5859 18.1875C56.5781 18.5508 55.5 18.75 54.375 18.75C53.332 18.75 52.3125 18.5742 51.3633 18.2578C53.2852 21.7383 54.375 25.7461 54.375 30C54.375 43.4648 43.4648 54.375 30 54.375C16.5352 54.375 5.625 43.4648 5.625 30C5.625 16.5352 16.5352 5.625 30 5.625C35.707 5.625 40.9453 7.58203 45.1055 10.8633C45.0352 10.418 45 9.96094 45 9.49219C45 8.15625 45.4453 6.86719 45.832 5.91797C45.9844 5.55469 46.1484 5.19141 46.3359 4.82813ZM43.9453 39.4336C45.1641 37.5469 43.1484 35.625 40.957 36.1406C37.5703 36.9375 33.8672 37.3711 29.9883 37.3711C26.1094 37.3711 22.4063 36.9375 19.0195 36.1406C16.8281 35.625 14.8125 37.5469 16.0313 39.4336C18.9141 43.8984 24.082 46.875 29.9883 46.875C35.8945 46.875 41.0625 43.8984 43.9453 39.4336ZM25.5 26.8125C25.7461 27.1406 26.168 27.2695 26.543 27.1406C26.918 27.0117 27.1875 26.6602 27.1875 26.25C27.1875 24.1523 26.4023 22.0781 25.2422 20.5312C24.0937 19.0078 22.4414 17.8125 20.625 17.8125C18.8086 17.8125 17.1563 19.0078 16.0078 20.5312C14.8477 22.0781 14.0625 24.1523 14.0625 26.25C14.0625 26.6484 14.3203 27.0117 14.707 27.1406C15.0937 27.2695 15.5156 27.1406 15.75 26.8125L15.7734 26.7891C15.7969 26.7656 15.8203 26.7305 15.8555 26.6836C15.9258 26.5898 16.043 26.4492 16.1836 26.2852C16.4766 25.957 16.8867 25.5117 17.3789 25.0781C18.4102 24.1641 19.582 23.4375 20.625 23.4375C21.668 23.4375 22.8398 24.1641 23.8711 25.0781C24.3633 25.5117 24.7734 25.957 25.0664 26.2852C25.207 26.4492 25.3242 26.5898 25.3945 26.6836C25.4297 26.7305 25.4648 26.7656 25.4766 26.7891L25.5 26.8125ZM44.25 26.8125C44.4961 27.1406 44.918 27.2695 45.293 27.1406C45.668 27.0117 45.9375 26.6602 45.9375 26.25C45.9375 24.1523 45.1523 22.0781 43.9922 20.5312C42.8437 19.0078 41.1914 17.8125 39.375 17.8125C37.5586 17.8125 35.9063 19.0078 34.7578 20.5312C33.5977 22.0781 32.8125 24.1523 32.8125 26.25C32.8125 26.6484 33.0703 27.0117 33.457 27.1406C33.8437 27.2695 34.2656 27.1406 34.5 26.8125L34.5234 26.7891C34.5469 26.7656 34.5703 26.7305 34.6055 26.6836C34.6758 26.5898 34.793 26.4492 34.9336 26.2852C35.2266 25.957 35.6367 25.5117 36.1289 25.0781C37.1602 24.1641 38.332 23.4375 39.375 23.4375C40.418 23.4375 41.5898 24.1641 42.6211 25.0781C43.1133 25.5117 43.5234 25.957 43.8164 26.2852C43.957 26.4492 44.0742 26.5898 44.1445 26.6836C44.1797 26.7305 44.2148 26.7656 44.2266 26.7891L44.25 26.8125Z" fill=""/>
</g>
<defs>
<clipPath id="clip0_453_2">
<rect width="60" height="60" fill="white"/>
</clipPath>
</defs>
</symbol>
</svg>
