<svg width="70" height="71" viewBox="0 0 70 71" fill="none" xmlns="http://www.w3.org/2000/svg">
  <symbol id="icon" viewBox="0 0 70 71">
    <g clip-path="url(#clip0_412_52)">
      <path
        d="M63.4375 35.4238C63.4375 27.8817 60.4414 20.6485 55.1083 15.3155C49.7753 9.98241 42.5421 6.98633 35 6.98633C27.4579 6.98633 20.2247 9.98241 14.8917 15.3155C9.55859 20.6485 6.5625 27.8817 6.5625 35.4238C6.5625 42.9659 9.55859 50.1991 14.8917 55.5322C20.2247 60.8652 27.4579 63.8613 35 63.8613C42.5421 63.8613 49.7753 60.8652 55.1083 55.5322C60.4414 50.1991 63.4375 42.9659 63.4375 35.4238ZM0 35.4238C0 26.1413 3.68749 17.2389 10.2513 10.6751C16.815 4.11132 25.7174 0.423828 35 0.423828C44.2826 0.423828 53.185 4.11132 59.7487 10.6751C66.3125 17.2389 70 26.1413 70 35.4238C70 44.7064 66.3125 53.6088 59.7487 60.1726C53.185 66.7363 44.2826 70.4238 35 70.4238C25.7174 70.4238 16.815 66.7363 10.2513 60.1726C3.68749 53.6088 0 44.7064 0 35.4238ZM17.8691 43.3398C17.2949 41.4805 18.8398 39.7988 20.7812 39.7988H49.834C51.7754 39.7988 53.3203 41.4941 52.7461 43.3398C50.4492 50.791 43.5039 56.2051 35.3008 56.2051C27.0977 56.2051 20.1523 50.791 17.8691 43.3398ZM29.75 31.7051L29.7227 31.6777C29.6953 31.6504 29.668 31.6094 29.627 31.5547C29.5449 31.4453 29.4082 31.2812 29.2441 31.0898C28.9023 30.707 28.4238 30.1875 27.8496 29.6816C26.6465 28.6152 25.2793 27.7676 24.0625 27.7676C22.8457 27.7676 21.4785 28.6152 20.2754 29.6816C19.7012 30.1875 19.2227 30.707 18.8809 31.0898C18.7168 31.2812 18.5801 31.4453 18.498 31.5547C18.457 31.6094 18.416 31.6504 18.4023 31.6777L18.375 31.7051C18.0879 32.0879 17.5957 32.2383 17.1582 32.0879C16.7207 31.9375 16.4062 31.5273 16.4062 31.0488C16.4062 28.6016 17.3223 26.1816 18.6758 24.377C20.0156 22.5996 21.9434 21.2051 24.0625 21.2051C26.1816 21.2051 28.1094 22.5996 29.4492 24.377C30.8027 26.1816 31.7188 28.6016 31.7188 31.0488C31.7188 31.5137 31.418 31.9375 30.9668 32.0879C30.5156 32.2383 30.0234 32.0879 29.75 31.7051ZM51.625 31.7051L51.5977 31.6777C51.5703 31.6504 51.543 31.6094 51.502 31.5547C51.4199 31.4453 51.2832 31.2812 51.1191 31.0898C50.7773 30.707 50.2988 30.1875 49.7246 29.6816C48.5215 28.6152 47.1543 27.7676 45.9375 27.7676C44.7207 27.7676 43.3535 28.6152 42.1504 29.6816C41.5762 30.1875 41.0977 30.707 40.7559 31.0898C40.5918 31.2812 40.4551 31.4453 40.373 31.5547C40.332 31.6094 40.291 31.6504 40.2773 31.6777L40.25 31.7051C39.9629 32.0879 39.4707 32.2383 39.0332 32.0879C38.5957 31.9375 38.2812 31.5273 38.2812 31.0488C38.2812 28.6016 39.1973 26.1816 40.5508 24.377C41.8906 22.5996 43.8184 21.2051 45.9375 21.2051C48.0566 21.2051 49.9844 22.5996 51.3242 24.377C52.6777 26.1816 53.5938 28.6016 53.5938 31.0488C53.5938 31.5137 53.293 31.9375 52.8418 32.0879C52.3906 32.2383 51.8984 32.0879 51.625 31.7051Z"
        fill="" />
    </g>
    <defs>
      <clipPath id="clip0_412_52">
        <rect width="70" height="70" fill="white" transform="translate(0 0.423828)" />
      </clipPath>
    </defs>
  </symbol>
</svg>