<svg width="26" height="26" viewBox="0 0 26 26" fill="currentcolor" xmlns="http://www.w3.org/2000/svg">
<symbol id="icon" viewBox="0 0 26 26">
<path d="M3.95931 9.33172C4.74368 8.98931 5.64577 9.39948 5.96452 10.2431L7.79161 14.6552H8.37859V2.65517C8.37859 1.74483 9.0713 1 9.91766 1C10.7645 1 11.4567 1.74483 11.4567 2.65517V10.9871L12.2265 11V9.70621C12.2265 8.79586 12.9192 8.05103 13.7656 8.05103C14.6146 8.05103 15.3047 8.79586 15.3047 9.70621V11.5636L16.0729 11.5766V10.587C16.0729 9.67669 16.7656 8.93186 17.612 8.93186C18.4588 8.93186 19.151 9.67669 19.151 10.587V12.474L19.9208 12.4869V11.5766C19.9208 10.6662 20.6135 9.92138 21.4599 9.92138C22.3073 9.92138 23 10.6662 23 11.5766V16.3103C23 20.231 21.0661 25 14.1979 25C12.0729 25 10.0614 24.6379 8.95516 23.9138C8.26144 23.4596 7.66465 22.8742 7.1989 22.1909C6.85086 21.6809 6.57075 21.1284 6.36556 20.5471L3.11243 11.4881C2.7942 10.6445 3.17493 9.67465 3.95931 9.33172Z" />
</symbol>
</svg>
