<svg width="132" height="132" viewBox="0 0 132 132" fill="none" xmlns="http://www.w3.org/2000/svg">
<symbol id="icon" viewBox="0 0 132 132">
<g clip-path="url(#clip0_371_64)">
<path fill-rule="evenodd" clip-rule="evenodd" d="M66 129.171C100.886 129.171 129.171 100.886 129.171 66C129.171 31.1143 100.886 2.82857 66 2.82857C31.1143 2.82857 2.82857 31.1143 2.82857 66C2.82857 100.886 31.1143 129.171 66 129.171ZM66 132C102.3 132 132 102.3 132 66C132 29.7 102.3 0 66 0C29.7 0 0 29.7 0 66C0 102.3 29.7 132 66 132Z" />
<path d="M106.543 81.5571C104.657 81.0857 101.828 79.6714 98.0568 76.3714C93.814 72.1285 82.4997 61.7571 81.5568 61.2857C81.0854 60.8142 80.1425 59.8714 78.7282 59.8714C78.2568 59.4 77.314 59.4 76.3711 59.8714C75.8997 60.3428 75.4282 61.2857 75.4282 61.7571C75.4282 62.7 75.4282 63.1714 75.8997 64.1142L83.4425 75.4285C83.914 75.9 83.4425 76.8428 82.9711 77.3142C82.9711 77.3142 82.9711 77.3142 82.4997 77.3142L74.9568 80.6142L57.514 90.0428C57.0425 90.0428 57.0425 90.0428 57.0425 90.0428L40.5425 92.8714H32.9997C32.9997 92.8714 29.6997 92.8714 29.6997 95.2285C29.6997 96.1714 30.1711 96.6428 30.1711 97.1142C31.114 98.0571 32.5282 98.0571 32.9997 98.0571H35.8282C40.5425 98.0571 51.8568 98.0571 52.3282 98.0571L73.0711 99L85.3282 99.9428C90.0425 99.4714 94.7568 97.5857 98.5282 94.2857C101.828 90.9857 104.657 86.7428 106.543 81.5571ZM100.414 74.0142C105.128 78.7285 108.9 79.2 108.9 79.2C109.843 79.2 110.314 80.1428 109.843 81.0857C107.957 87.6857 104.185 92.8714 100.414 96.1714C96.1711 99.9428 90.9854 102.3 85.7997 102.771C85.7997 102.771 85.7997 102.771 85.3282 102.771L73.0711 102.3L52.3282 100.886C50.4425 100.886 40.5425 100.886 35.8282 100.886H32.9997C32.0568 100.886 30.1711 100.886 28.2854 99.4714C27.3425 98.5285 26.8711 97.1142 26.8711 95.2285C26.8711 90.0428 32.9997 90.0428 32.9997 90.0428H40.0711L56.0997 87.2142L73.5425 77.7857H74.014L79.6711 75.4285L73.0711 65.5285C72.5997 64.1142 72.1282 62.7 72.5997 61.2857C72.5997 59.8714 73.5425 58.9285 74.4854 57.9857V57.5142C76.3711 56.5714 78.2568 56.5714 79.6711 57.0428C81.0854 57.5142 82.4997 57.9857 83.4425 58.9285C83.4425 58.9285 95.6997 69.7714 100.414 74.0142Z" />
<path d="M72.6005 78.7286C73.5433 79.2001 73.5433 80.1429 73.5433 80.6143C73.0719 81.5572 72.129 82.0286 71.6576 81.5572L54.2148 74.9572C53.7433 74.4858 49.9719 73.5429 49.5005 75.4286C49.029 75.9001 49.029 76.3715 49.5005 76.8429C49.5005 77.3143 49.9719 77.7858 50.4433 78.2572H50.9148L64.1148 82.9715C64.5862 82.9715 65.529 83.9143 65.0576 84.8572C64.5862 85.8001 64.1148 85.8001 63.1719 85.8001L44.7862 79.2001C43.3719 78.7286 40.5433 77.7858 39.6005 80.1429C39.129 82.0286 40.5433 82.9715 41.9576 83.4429L57.5148 86.7429L56.5719 89.5715L35.3576 84.8572C35.3576 84.8572 33.4719 84.3858 33.0005 85.8001C32.529 86.7429 33.0005 87.2143 33.4719 87.6858C33.9433 88.1572 34.8862 88.6286 35.3576 88.6286C37.2433 89.1001 40.5433 90.0429 40.5433 90.0429C41.4862 90.0429 41.9576 90.9858 41.9576 91.9286C41.4862 92.4001 41.0148 92.8715 40.0719 92.8715C40.0719 92.8715 36.3005 91.9286 34.4148 91.4572C33.4719 91.4572 32.529 90.9858 31.5862 90.0429C30.1719 89.1001 29.7005 87.2143 30.1719 85.3286C31.5862 81.0858 35.3576 81.5572 36.3005 82.0286H36.7719C36.3005 81.0858 36.3005 80.1429 36.7719 79.2001C38.6576 73.5429 45.729 76.3715 45.729 76.3715L46.2005 76.8429C46.2005 75.9001 46.2005 74.9572 46.6719 74.4858C48.0862 71.1858 52.329 71.1858 55.1576 72.1286L72.6005 78.7286Z" />
<path fill-rule="evenodd" clip-rule="evenodd" d="M41.0142 28.7571C40.5428 28.7571 40.0714 29.2285 40.0714 29.6999L39.6 32.0571L37.2428 31.5857C36.7714 31.5857 36.3 31.5857 36.3 32.0571C36.3 32.5285 36.7714 32.9999 37.2428 32.9999L39.6 33.4714L38.6571 40.0714L36.3 39.5999C35.8285 39.5999 35.3571 40.0714 35.3571 40.0714C35.3571 40.5428 35.3571 41.0142 35.8285 41.0142L38.1857 41.4857L37.2428 48.0857L34.8857 47.6142C34.4142 47.6142 33.9428 48.0857 33.9428 48.5571C33.9428 49.0285 34.4142 49.0285 34.8857 49.4999H37.2428L36.3 56.0999L33.9428 55.6285C33.4714 55.6285 33 56.0999 33 56.5714C32.5285 57.0428 33 57.5142 33.4714 57.5142H35.8285L35.3571 60.3428C35.3571 60.3428 35.8285 60.8142 36.3 61.2857C36.7714 61.2857 37.2428 60.8142 37.2428 60.3428L37.7142 57.9857L43.8428 58.9285V61.2857C43.3714 61.7571 43.8428 62.2285 44.3142 62.2285C44.7857 62.2285 45.2571 62.2285 45.2571 61.7571L45.7285 58.9285L51.8571 60.3428V62.6999C51.8571 63.1714 51.8571 63.1714 52.3285 63.6428C52.8 63.6428 53.2714 63.1714 53.2714 62.6999L53.7428 60.3428L60.3428 61.2857L59.8714 63.6428C59.8714 64.1142 59.8714 64.5857 60.3428 64.5857C60.8142 64.5857 61.2857 64.5857 61.2857 64.1142L61.7571 61.7571H64.1142C64.5857 61.7571 65.0571 61.7571 65.0571 61.2857C65.0571 60.8142 65.0571 60.3428 64.5857 60.3428L61.7571 59.8714L63.1714 53.2714L65.5285 53.7428C66 53.7428 66 53.7428 66.4714 53.2714C66.4714 52.7999 66 52.3285 65.5285 52.3285L63.1714 51.8571L64.1142 45.2571L66.4714 45.7285C66.9428 45.7285 67.4142 45.7285 67.4142 45.2571C67.4142 44.7857 67.4142 44.3142 66.9428 44.3142L64.5857 43.8428L65.5285 37.2428L67.8857 37.7142C68.3571 37.7142 68.8285 37.2428 68.8285 37.2428C68.8285 36.7714 68.3571 36.2999 67.8857 36.2999L65.5285 35.8285L66 33.4714C66 32.9999 65.5285 32.5285 65.0571 32.5285C65.0571 32.5285 64.5857 32.5285 64.1142 32.9999V35.3571L57.5142 34.4142L57.9857 32.0571C57.9857 31.5857 57.5142 31.1142 57.0428 31.1142C56.5714 31.1142 56.5714 31.5857 56.1 32.0571V34.4142L49.5 33.4714L49.9714 31.1142C49.9714 30.6428 49.5 30.1714 49.0285 30.1714C48.5571 29.6999 48.0857 30.1714 48.0857 30.6428V32.9999L41.4857 32.0571L41.9571 29.6999C41.9571 29.2285 41.4857 28.7571 41.0142 28.7571ZM60.3428 59.8714L61.2857 53.2714L54.6857 52.3285L53.7428 58.9285L60.3428 59.8714ZM52.3285 58.4571L53.2714 51.8571L46.6714 50.9142L45.7285 57.5142L52.3285 58.4571ZM44.3142 57.5142L45.2571 50.9142L38.6571 49.9714L37.7142 56.0999L44.3142 57.5142ZM45.2571 49.0285L39.1285 48.0857L40.0714 41.9571L46.2 42.8999L45.2571 49.0285ZM53.7428 50.4428L47.1428 49.4999L48.0857 42.8999L54.6857 43.8428L53.7428 50.4428ZM61.7571 51.8571L55.1571 50.4428L56.1 44.3142L62.7 45.2571L61.7571 51.8571ZM62.7 43.3714L63.6428 37.2428L57.5142 36.2999L56.1 42.4285L62.7 43.3714ZM54.6857 42.4285L55.6285 35.8285L49.0285 34.8857L48.0857 41.4857L54.6857 42.4285ZM46.6714 41.0142L47.6142 34.8857L41.0142 33.9428L40.0714 40.0714L46.6714 41.0142Z" />
</g>
<defs>
<clipPath id="clip0_371_64">
<rect width="132" height="132" fill="white"/>
</clipPath>
</defs>
</symbol>
</svg>
