<svg xmlns="http://www.w3.org/2000/svg" width="21" height="20" viewBox="0 0 21 20" fill="none">
<symbol id="icon" viewBox="0 0 21 20">
  <path
    d="M4.875 4.375L5.65625 16.875C5.69336 17.5973 6.21875 18.125 6.90625 18.125H14.0938C14.784 18.125 15.2996 17.5973 15.3438 16.875L16.125 4.375"
    stroke="" stroke-width="1.5" stroke-linecap="round" stroke-linejoin="round" />
  <path d="M3.625 4.375H17.375" stroke="" stroke-width="1.5" stroke-miterlimit="10" stroke-linecap="round" />
  <path
    d="M8 4.375V2.8125C7.99964 2.68929 8.02365 2.56722 8.07063 2.45331C8.11762 2.33941 8.18666 2.23591 8.27379 2.14879C8.36091 2.06166 8.46441 1.99262 8.57831 1.94563C8.69222 1.89865 8.81429 1.87464 8.9375 1.875H12.0625C12.1857 1.87464 12.3078 1.89865 12.4217 1.94563C12.5356 1.99262 12.6391 2.06166 12.7262 2.14879C12.8133 2.23591 12.8824 2.33941 12.9294 2.45331C12.9764 2.56722 13.0004 2.68929 13 2.8125V4.375M8.6875 6.875L9 15.625M12.3125 6.875L12 15.625"
    stroke="" stroke-width="1.5" stroke-linecap="round" stroke-linejoin="round" />
  </symbol>
</svg>