<svg width="30" height="30" viewBox="0 0 30 30" fill="currentcolor" xmlns="http://www.w3.org/2000/svg">
<symbol id="icon" viewBox="0 0 30 30">
<path d="M13.661 21.1002C13.5632 21.1006 13.4658 21.0854 13.3728 21.0551C13.2054 21.0009 13.0566 20.9008 12.9435 20.7661C12.8303 20.6314 12.7574 20.4676 12.7329 20.2934C12.6069 19.4144 11.564 18.3914 10.5872 18.1928C10.4259 18.1594 10.2763 18.0842 10.1533 17.9746C10.0304 17.865 9.93844 17.7249 9.88682 17.5685C9.83519 17.4121 9.82569 17.2449 9.85926 17.0836C9.89283 16.9224 9.96829 16.7728 10.078 16.65L22.4466 2.87461C22.4577 2.86172 22.4694 2.84941 22.4812 2.83769C23.1025 2.21808 23.9442 1.87013 24.8217 1.87013C25.6992 1.87013 26.5409 2.21808 27.1622 2.83769C27.7816 3.45747 28.13 4.29747 28.1312 5.17366C28.1324 6.04986 27.7863 6.89082 27.1687 7.5123L14.3366 20.8131C14.2491 20.9039 14.1442 20.9762 14.0281 21.0255C13.912 21.0748 13.7872 21.1002 13.661 21.1002ZM7.02472 28.1314C5.14152 28.1314 3.18976 27.1418 2.05304 25.6119C1.94944 25.4724 1.88664 25.3069 1.87166 25.1338C1.85667 24.9607 1.8901 24.7868 1.96819 24.6316C2.04629 24.4763 2.16598 24.3459 2.31392 24.2547C2.46186 24.1636 2.63221 24.1154 2.80597 24.1154C3.11886 24.1154 3.97785 23.8301 3.97785 22.9102C3.97785 20.6209 5.81769 18.7582 8.07941 18.7582C10.3411 18.7582 12.181 20.6209 12.181 22.9102C12.181 25.7883 9.86769 28.1314 7.02472 28.1314Z" />
</symbol>
</svg>
