<svg width="30" height="30" viewBox="0 0 30 30" fill="none" xmlns="http://www.w3.org/2000/svg">
  <symbol id="icon" viewBox="0 0 30 30">
    <path fill-rule="evenodd" clip-rule="evenodd"
      d="M22.4439 2.78702C23.0763 2.1546 23.9341 1.79932 24.8285 1.79932C25.7229 1.79932 26.5807 2.1546 27.2131 2.78702L27.2132 2.78706C27.8456 3.41952 28.2009 4.27729 28.2009 5.17169C28.2009 6.06285 27.8482 6.91764 27.2201 7.54943L14.3873 20.8508C14.122 21.1257 13.7234 21.2255 13.3599 21.1079C12.9964 20.9904 12.7317 20.6761 12.6776 20.2979C12.6249 19.9291 12.382 19.4648 11.9577 19.0431C11.5373 18.6254 11.0299 18.3413 10.5817 18.25C10.2304 18.1785 9.94423 17.9243 9.83174 17.5839C9.71926 17.2434 9.79764 16.8688 10.0372 16.602L22.4069 2.82604C22.4189 2.81271 22.4312 2.7997 22.4439 2.78702ZM23.8746 4.18499L12.4582 16.8993C12.7906 17.109 13.0974 17.3561 13.3675 17.6245C13.5949 17.8506 13.8082 18.1036 13.9942 18.3776L25.7864 6.15491L25.7989 6.14214C26.0563 5.88476 26.2009 5.53568 26.2009 5.17169C26.2009 4.80772 26.0563 4.45866 25.799 4.20128C25.5416 3.9439 25.1925 3.79932 24.8285 3.79932C24.4723 3.79932 24.1303 3.93781 23.8746 4.18499ZM3.92188 22.9022C3.92188 20.5859 5.76809 18.6877 8.08594 18.6877C10.4038 18.6877 12.25 20.5859 12.25 22.9022C12.25 25.8073 9.92915 28.1877 7.03126 28.1877C5.11758 28.1877 3.16574 27.1986 2.00954 25.6409C1.78431 25.3375 1.74936 24.9331 1.91919 24.5955C2.08902 24.2579 2.43463 24.0449 2.81251 24.0449C3.00425 24.0449 3.3019 23.9539 3.54529 23.7434C3.76524 23.5532 3.92188 23.2844 3.92188 22.9022ZM8.08594 20.6877C6.90223 20.6877 5.92188 21.6606 5.92188 22.9022C5.92188 24.0617 5.36238 24.9029 4.64266 25.4216C5.35739 25.905 6.21264 26.1877 7.03126 26.1877C8.79508 26.1877 10.25 24.7325 10.25 22.9022C10.25 21.6606 9.26965 20.6877 8.08594 20.6877Z"
      fill="" />
  </symbol>
</svg>