<svg width="40" height="40" viewBox="0 0 40 40" fill="none" xmlns="http://www.w3.org/2000/svg">
<symbol id="icon" viewBox="0 0 40 40">
<path d="M32.4998 27.5C31.5154 27.4344 30.8592 27.1875 30.3123 26.5625C29.2186 25.3125 29.2186 23.75 30.7412 22.4625L33.3053 20.1859C37.2326 16.7164 37.2326 11.0289 33.3053 7.55859C30.4107 5.01094 26.5264 3.75 22.4889 3.75C17.7748 3.75 12.849 5.46875 9.05137 8.83672C1.98418 15.0867 1.98418 25.3148 9.05137 31.5609C12.567 34.6672 17.3037 36.2164 21.992 36.2484H22.1357C26.8232 36.2484 31.4381 34.725 34.7295 31.8133C36.2498 30.4688 36.2498 30.0781 34.7357 27.7781C34.3748 27.1875 33.6717 27.5781 32.4998 27.5ZM8.7498 16.25C8.7498 15.7555 8.89643 15.2722 9.17113 14.8611C9.44583 14.45 9.83628 14.1295 10.2931 13.9403C10.7499 13.7511 11.2526 13.7016 11.7375 13.798C12.2225 13.8945 12.6679 14.1326 13.0176 14.4822C13.3672 14.8319 13.6053 15.2773 13.7018 15.7623C13.7982 16.2472 13.7487 16.7499 13.5595 17.2067C13.3703 17.6635 13.0499 18.054 12.6387 18.3287C12.2276 18.6034 11.7443 18.75 11.2498 18.75C10.5868 18.75 9.95088 18.4866 9.48204 18.0178C9.0132 17.5489 8.7498 16.913 8.7498 16.25ZM11.8748 26.7969C11.3804 26.7969 10.897 26.6503 10.4859 26.3755C10.0748 26.1008 9.75432 25.7104 9.56511 25.2536C9.37589 24.7968 9.32638 24.2941 9.42284 23.8091C9.5193 23.3242 9.75741 22.8787 10.107 22.5291C10.4567 22.1795 10.9021 21.9414 11.3871 21.8449C11.872 21.7484 12.3747 21.798 12.8315 21.9872C13.2883 22.1764 13.6788 22.4968 13.9535 22.9079C14.2282 23.3191 14.3748 23.8024 14.3748 24.2969C14.3748 24.9599 14.1114 25.5958 13.6426 26.0646C13.1737 26.5335 12.5378 26.7969 11.8748 26.7969ZM14.9998 11.25C14.9998 10.7555 15.1464 10.2722 15.4211 9.86107C15.6958 9.44995 16.0863 9.12952 16.5431 8.9403C16.9999 8.75108 17.5026 8.70157 17.9875 8.79804C18.4725 8.8945 18.9179 9.1326 19.2676 9.48223C19.6172 9.83186 19.8553 10.2773 19.9518 10.7623C20.0482 11.2472 19.9987 11.7499 19.8095 12.2067C19.6203 12.6635 19.2999 13.054 18.8887 13.3287C18.4776 13.6034 17.9943 13.75 17.4998 13.75C16.8368 13.75 16.2009 13.4866 15.732 13.0178C15.2632 12.5489 14.9998 11.913 14.9998 11.25ZM19.9998 32.4219C19.2581 32.4219 18.5331 32.2019 17.9164 31.7899C17.2997 31.3778 16.8191 30.7922 16.5353 30.1069C16.2514 29.4217 16.1772 28.6677 16.3219 27.9403C16.4666 27.2129 16.8237 26.5447 17.3482 26.0202C17.8726 25.4958 18.5408 25.1386 19.2682 24.9939C19.9956 24.8492 20.7496 24.9235 21.4349 25.2073C22.1201 25.4912 22.7058 25.9718 23.1178 26.5885C23.5299 27.2052 23.7498 27.9302 23.7498 28.6719C23.7498 29.6664 23.3547 30.6203 22.6515 31.3235C21.9482 32.0268 20.9944 32.4219 19.9998 32.4219ZM25.6248 13.75C25.1304 13.75 24.647 13.6034 24.2359 13.3287C23.8248 13.054 23.5043 12.6635 23.3151 12.2067C23.1259 11.7499 23.0764 11.2472 23.1728 10.7623C23.2693 10.2773 23.5074 9.83186 23.857 9.48223C24.2067 9.1326 24.6521 8.8945 25.1371 8.79804C25.622 8.70157 26.1247 8.75108 26.5815 8.9403C27.0383 9.12952 27.4288 9.44995 27.7035 9.86107C27.9782 10.2722 28.1248 10.7555 28.1248 11.25C28.1248 11.913 27.8614 12.5489 27.3926 13.0178C26.9237 13.4866 26.2878 13.75 25.6248 13.75Z" />
</symbol>
</svg>
