<svg width="25" height="25" viewBox="0 0 25 25" fill="none" xmlns="http://www.w3.org/2000/svg">
<symbol id="icon" viewBox="0 0 25 25">
<g clip-path="url(#clip0_156_354)">
<path fill-rule="evenodd" clip-rule="evenodd" d="M3.125 0C2.77982 0 2.5 0.279821 2.5 0.624999V2.5H0.625C0.279822 2.5 0 2.77982 0 3.125C0 3.47018 0.279821 3.75 0.624999 3.75H2.5V8.75H0.625C0.279822 8.75 0 9.02982 0 9.375C0 9.72018 0.279821 10 0.624999 10H2.5V15H0.625C0.279822 15 0 15.2798 0 15.625C0 15.9702 0.279821 16.25 0.624999 16.25H2.5V21.25H0.625C0.279822 21.25 0 21.5298 0 21.875C0 22.2202 0.279821 22.5 0.624999 22.5H2.5V24.375C2.5 24.7202 2.77982 25 3.125 25C3.47018 25 3.75 24.7202 3.75 24.375V22.5H8.75V24.375C8.75 24.7202 9.02982 25 9.375 25C9.72018 25 10 24.7202 10 24.375V22.5H15V24.375C15 24.7202 15.2798 25 15.625 25C15.9702 25 16.25 24.7202 16.25 24.375V22.5H21.25V24.375C21.25 24.7202 21.5298 25 21.875 25C22.2202 25 22.5 24.7202 22.5 24.375V22.5H24.375C24.7202 22.5 25 22.2202 25 21.875C25 21.5298 24.7202 21.25 24.375 21.25H22.5V16.25H24.375C24.7202 16.25 25 15.9702 25 15.625C25 15.2798 24.7202 15 24.375 15H22.5V10H24.375C24.7202 10 25 9.72018 25 9.375C25 9.02982 24.7202 8.75 24.375 8.75H22.5V3.75H24.375C24.7202 3.75 25 3.47018 25 3.125C25 2.77982 24.7202 2.5 24.375 2.5H22.5V0.625C22.5 0.279822 22.2202 0 21.875 0C21.5298 0 21.25 0.279821 21.25 0.624999V2.5H16.25V0.625C16.25 0.279822 15.9702 0 15.625 0C15.2798 0 15 0.279821 15 0.624999V2.5H10V0.625C10 0.279822 9.72018 0 9.375 0C9.02982 0 8.75 0.279821 8.75 0.624999V2.5H3.75V0.625C3.75 0.279822 3.47018 0 3.125 0ZM21.25 21.25V16.25H16.25V21.25H21.25ZM15 21.25V16.25H10V21.25H15ZM8.75 21.25V16.25H3.75V21.25H8.75ZM8.75 15H3.75V10H8.75V15ZM15 15H10V10H15V15ZM21.25 15H16.25V10H21.25V15ZM21.25 8.75V3.75H16.25V8.75H21.25ZM15 8.75V3.75H10V8.75H15ZM8.75 8.75V3.75H3.75V8.75H8.75Z" />
</g>
<defs>
<clipPath id="clip0_156_354">
<rect width="25" height="25" fill="white"/>
</clipPath>
</defs>
</symbol>
</svg>
