<svg width="32" height="32" viewBox="0 0 32 32" fill="none" xmlns="http://www.w3.org/2000/svg">
<g clip-path="url(#clip0_12_9)">
<path fill-rule="evenodd" clip-rule="evenodd" d="M19.7387 31.1096C18.5671 32.2812 16.6676 32.2812 15.496 31.1096L4.00002 20.5L4.11736 31.2383C4.11736 31.6525 3.78155 31.9883 3.36736 31.9883C2.95317 31.9883 2.61736 31.6525 2.61736 31.2383L2.61736 8.98829C2.61738 8.19263 2.93345 7.42955 3.49605 6.86691L9.49605 0.866915C10.6676 -0.304648 12.5671 -0.304648 13.7387 0.866915L29.7387 16.8669C30.9103 18.0386 30.9102 19.938 29.7387 21.1096L19.7387 31.1096ZM9.50002 24L21.5 11L11.5 1.00002L4.11736 8.50002L4.00002 19L9.50002 24ZM22.5 12L29 18.5L17 30.5L10.5 24.5L22.5 12Z" fill="black"/>
</g>
<defs>
<clipPath id="clip0_12_9">
<rect width="32" height="32" fill="white" transform="translate(32) rotate(90)"/>
</clipPath>
</defs>
</svg>
