<svg width="100" height="102" viewBox="0 0 100 102" fill="none" xmlns="http://www.w3.org/2000/svg">
  <symbol id="icon" viewBox="0 0 100 102">
    <g clip-path="url(#clip0_148_110)">
      <path
        d="M90.4762 25.4998C95.7341 25.4998 100 21.3162 100 16.1365C100 12.1522 94.3452 4.10371 91.746 0.637308C91.1111 -0.219333 89.8413 -0.219333 89.2064 0.637308C86.6071 4.10371 80.9524 12.1522 80.9524 16.1365C80.9524 21.3162 85.2183 25.4998 90.4762 25.4998ZM90.4762 31.8748C81.7262 31.8748 74.6032 24.8225 74.6032 16.1365C74.6032 15.26 74.6627 13.3076 76.2103 9.72168C68.4524 4.60176 59.1865 1.59356 49.2063 1.59356C22.0238 1.59356 0 23.7068 0 50.9998C0 78.2928 22.0238 100.406 49.2063 100.406C76.3889 100.406 98.4127 78.2928 98.4127 50.9998C98.4127 44.0072 96.9444 37.3732 94.3452 31.3568C93.0952 31.6557 91.8254 31.8748 90.4762 31.8748ZM65.0794 30.2811C69.8016 30.2811 75.5357 36.1182 76.1905 44.5053C76.3294 46.2186 74.0476 46.8959 73.2341 45.4018L71.3492 42.015C69.8214 39.2857 67.5397 37.7119 65.0992 37.7119C62.6587 37.7119 60.377 39.2857 58.8492 42.015L56.9643 45.4018C56.1508 46.876 53.869 46.1986 54.0079 44.5053C54.623 36.1182 60.3571 30.2811 65.0794 30.2811ZM33.3333 30.2811C38.0556 30.2811 43.7897 36.1182 44.4444 44.5053C44.5833 46.2186 42.3016 46.8959 41.4881 45.4018L39.6032 42.015C38.0754 39.2857 35.7937 37.7119 33.3532 37.7119C30.9127 37.7119 28.631 39.2857 27.1032 42.015L25.2183 45.4018C24.3849 46.876 22.123 46.1986 22.2619 44.5053C22.877 36.1182 28.6111 30.2811 33.3333 30.2811ZM49.2063 86.0623C37.1825 86.0623 22.5198 78.4322 20.6746 67.4752C20.2778 65.1244 22.5198 63.1721 24.7817 63.9092C30.7738 65.8416 39.6825 66.9373 49.2063 66.9373C58.7302 66.9373 67.6389 65.8416 73.631 63.9092C75.9127 63.1721 78.1151 65.1443 77.7381 67.4752C75.8929 78.4322 61.2302 86.0623 49.2063 86.0623Z" />
    </g>
    <defs>
      <clipPath id="clip0_148_110">
        <rect width="100" height="102" fill="white" />
      </clipPath>
    </defs>
  </symbol>
</svg>