<svg width="90" height="91" viewBox="0 0 90 91" fill="none" xmlns="http://www.w3.org/2000/svg">
  <symbol id="icon" viewBox="0 0 90 91">
    <path fill-rule="evenodd" clip-rule="evenodd"
      d="M11.9531 11.8613C11.3922 11.8613 10.9375 12.316 10.9375 12.877V36.7832C10.9375 37.3441 11.3922 37.7988 11.9531 37.7988H35.8594C36.4203 37.7988 36.875 37.3441 36.875 36.7832V12.877C36.875 12.316 36.4203 11.8613 35.8594 11.8613H11.9531ZM5.9375 12.877C5.9375 9.55462 8.63079 6.86133 11.9531 6.86133H35.8594C39.1817 6.86133 41.875 9.55462 41.875 12.877V36.7832C41.875 40.1055 39.1817 42.7988 35.8594 42.7988H11.9531C8.63079 42.7988 5.9375 40.1055 5.9375 36.7832V12.877Z"
      fill="" />
    <path fill-rule="evenodd" clip-rule="evenodd"
      d="M54.1406 11.8613C53.5797 11.8613 53.125 12.316 53.125 12.877V36.7832C53.125 37.3441 53.5797 37.7988 54.1406 37.7988H78.0469C78.6078 37.7988 79.0625 37.3441 79.0625 36.7832V12.877C79.0625 12.316 78.6078 11.8613 78.0469 11.8613H54.1406ZM48.125 12.877C48.125 9.55462 50.8183 6.86133 54.1406 6.86133H78.0469C81.3692 6.86133 84.0625 9.55462 84.0625 12.877V36.7832C84.0625 40.1055 81.3692 42.7988 78.0469 42.7988H54.1406C50.8183 42.7988 48.125 40.1055 48.125 36.7832V12.877Z"
      fill="" />
    <path fill-rule="evenodd" clip-rule="evenodd"
      d="M11.9531 54.0488C11.3922 54.0488 10.9375 54.5035 10.9375 55.0645V78.9707C10.9375 79.5316 11.3922 79.9863 11.9531 79.9863H35.8594C36.4203 79.9863 36.875 79.5316 36.875 78.9707V55.0645C36.875 54.5035 36.4203 54.0488 35.8594 54.0488H11.9531ZM5.9375 55.0645C5.9375 51.7421 8.63079 49.0488 11.9531 49.0488H35.8594C39.1817 49.0488 41.875 51.7421 41.875 55.0645V78.9707C41.875 82.293 39.1817 84.9863 35.8594 84.9863H11.9531C8.63079 84.9863 5.9375 82.293 5.9375 78.9707V55.0645Z"
      fill="" />
    <path fill-rule="evenodd" clip-rule="evenodd"
      d="M54.1406 54.0488C53.5797 54.0488 53.125 54.5035 53.125 55.0645V78.9707C53.125 79.5316 53.5797 79.9863 54.1406 79.9863H78.0469C78.6078 79.9863 79.0625 79.5316 79.0625 78.9707V55.0645C79.0625 54.5035 78.6078 54.0488 78.0469 54.0488H54.1406ZM48.125 55.0645C48.125 51.7421 50.8183 49.0488 54.1406 49.0488H78.0469C81.3692 49.0488 84.0625 51.7421 84.0625 55.0645V78.9707C84.0625 82.293 81.3692 84.9863 78.0469 84.9863H54.1406C50.8183 84.9863 48.125 82.293 48.125 78.9707V55.0645Z"
      fill="" />
  </symbol>
</svg>