<svg width="75" height="75" viewBox="0 0 75 75" fill="currentcolor" xmlns="http://www.w3.org/2000/svg">
<symbol id="icon" viewBox="0 0 75 75">
<path d="M12.4992 27.9969H12.5098L18.3164 25.577C18.4416 25.5054 18.5467 25.4035 18.6221 25.2806C18.6975 25.1577 18.7406 25.0178 18.7477 24.8738C18.741 24.7298 18.6979 24.5897 18.6225 24.4668C18.5471 24.3438 18.4418 24.242 18.3164 24.1707L12.5074 21.7484H12.4992L10.0781 15.9313C10.0134 15.8014 9.91373 15.6922 9.79035 15.6159C9.66698 15.5395 9.52477 15.4991 9.37969 15.4991C9.23461 15.4991 9.0924 15.5395 8.96902 15.6159C8.84565 15.6922 8.746 15.8014 8.68125 15.9313L6.25547 21.7473H6.24961L0.433594 24.1719C0.307765 24.2429 0.201991 24.3446 0.126162 24.4675C0.0503329 24.5905 0.00692603 24.7307 0 24.875H0C0.00700669 25.019 0.0501924 25.1589 0.125567 25.2818C0.200942 25.4047 0.306074 25.5066 0.43125 25.5781L6.24258 27.9922H6.25078L8.67188 33.8117C8.73631 33.9419 8.83585 34.0515 8.95926 34.1281C9.08268 34.2047 9.22505 34.2453 9.37031 34.2453C9.51558 34.2453 9.65795 34.2047 9.78136 34.1281C9.90477 34.0515 10.0043 33.9419 10.0687 33.8117L12.4934 27.9969H12.4992ZM55.2398 62.7746L55.1227 62.7254L55.0055 62.6668C54.2538 62.29 53.6218 61.7116 53.1801 60.9961C52.7385 60.2806 52.5045 59.4564 52.5045 58.6156C52.5045 57.7748 52.7385 56.9506 53.1801 56.2351C53.6218 55.5197 54.2538 54.9412 55.0055 54.5645L55.1227 54.507L55.2398 54.4566L59.6332 52.625L61.4648 48.2328L61.5129 48.1156L61.568 48.0043C62.0191 47.0973 62.8078 46.407 63.7184 45.9723C63.7184 45.8164 63.7477 45.657 63.75 45.5035V24.875C63.75 23.8804 63.3549 22.9266 62.6517 22.2233C61.9484 21.5201 60.9946 21.125 60 21.125C59.0054 21.125 58.0516 21.5201 57.3484 22.2233C56.6451 22.9266 56.25 23.8804 56.25 24.875V33.3125C56.25 33.5611 56.1512 33.7996 55.9754 33.9754C55.7996 34.1512 55.5611 34.25 55.3125 34.25H53.4375C53.1889 34.25 52.9504 34.1512 52.7746 33.9754C52.5988 33.7996 52.5 33.5611 52.5 33.3125V15.5C52.5 14.5054 52.1049 13.5516 51.4016 12.8483C50.6984 12.1451 49.7446 11.75 48.75 11.75C47.7554 11.75 46.8016 12.1451 46.0984 12.8483C45.3951 13.5516 45 14.5054 45 15.5V33.3125C45 33.5611 44.9012 33.7996 44.7254 33.9754C44.5496 34.1512 44.3111 34.25 44.0625 34.25H42.1875C41.9389 34.25 41.7004 34.1512 41.5246 33.9754C41.3488 33.7996 41.25 33.5611 41.25 33.3125V11.75C41.25 10.7554 40.8549 9.80161 40.1516 9.09835C39.4484 8.39509 38.4946 8 37.5 8C36.5054 8 35.5516 8.39509 34.8484 9.09835C34.1451 9.80161 33.75 10.7554 33.75 11.75V33.3125C33.75 33.5611 33.6512 33.7996 33.4754 33.9754C33.2996 34.1512 33.0611 34.25 32.8125 34.25H30.9375C30.6889 34.25 30.4504 34.1512 30.2746 33.9754C30.0988 33.7996 30 33.5611 30 33.3125V15.5C30 14.5054 29.6049 13.5516 28.9016 12.8483C28.1984 12.1451 27.2446 11.75 26.25 11.75C25.2554 11.75 24.3016 12.1451 23.5984 12.8483C22.8951 13.5516 22.5 14.5054 22.5 15.5V43.7422L19.7355 39.9348C19.0038 38.9292 17.9025 38.2555 16.674 38.0618C15.4455 37.8682 14.1904 38.1706 13.1848 38.9023C12.1792 39.6341 11.5055 40.7354 11.3118 41.9639C11.1182 43.1924 11.4206 44.4475 12.1523 45.4531L26.8711 65.6809C27.3928 66.3979 28.0764 66.9817 28.8663 67.3847C29.6562 67.7877 30.53 67.9985 31.4168 68H54.5742C56.8289 68 58.752 66.6254 59.6414 64.6262L59.6332 64.6063L55.2398 62.7746ZM40.991 47.7875L37.5 49.2418L36.0445 52.7316C36.0055 52.8093 35.9457 52.8747 35.8717 52.9203C35.7977 52.9659 35.7125 52.9901 35.6256 52.9901C35.5387 52.9901 35.4534 52.9659 35.3795 52.9203C35.3055 52.8747 35.2456 52.8093 35.2066 52.7316L33.75 49.2418L30.259 47.7875C30.181 47.7486 30.1154 47.6888 30.0695 47.6147C30.0236 47.5406 29.9993 47.4551 29.9993 47.368C29.9993 47.2808 30.0236 47.1954 30.0695 47.1213C30.1154 47.0472 30.181 46.9873 30.259 46.9484L33.75 45.493L35.2055 42.0031C35.2445 41.9254 35.3043 41.8601 35.3783 41.8145C35.4523 41.7688 35.5375 41.7446 35.6244 41.7446C35.7113 41.7446 35.7966 41.7688 35.8705 41.8145C35.9445 41.8601 36.0044 41.9254 36.0434 42.0031L37.5 45.493L40.991 46.9484C41.069 46.9873 41.1346 47.0472 41.1805 47.1213C41.2264 47.1954 41.2507 47.2808 41.2507 47.368C41.2507 47.4551 41.2264 47.5406 41.1805 47.6147C41.1346 47.6888 41.069 47.7486 40.991 47.7875V47.7875ZM75 58.6145C74.9934 58.4704 74.9504 58.3303 74.875 58.2073C74.7996 58.0843 74.6942 57.9825 74.5688 57.9113L68.7598 55.4891H68.7516L66.3281 49.6754C66.2634 49.5456 66.1637 49.4363 66.0403 49.36C65.917 49.2837 65.7748 49.2432 65.6297 49.2432C65.4846 49.2432 65.3424 49.2837 65.219 49.36C65.0956 49.4363 64.996 49.5456 64.9313 49.6754L62.5055 55.4914H62.4996L56.6836 57.9219C56.5581 57.9931 56.4528 58.0949 56.3773 58.2179C56.3019 58.3408 56.2589 58.4809 56.2523 58.625V58.625C56.26 58.7681 56.3035 58.9069 56.3789 59.0287C56.4542 59.1506 56.559 59.2515 56.6836 59.3223L62.4926 61.7445H62.5008L64.9219 67.5559C64.9863 67.686 65.0859 67.7956 65.2093 67.8723C65.3327 67.9489 65.4751 67.9895 65.6203 67.9895C65.7656 67.9895 65.9079 67.9489 66.0314 67.8723C66.1548 67.7956 66.2543 67.686 66.3187 67.5559L68.7434 61.741H68.7539L74.5605 59.3199C74.6851 59.2492 74.7899 59.1482 74.8653 59.0264C74.9406 58.9046 74.9841 58.7657 74.9918 58.6227V58.6227L75 58.6145Z" />
</symbol>
</svg>
