<svg width="25" height="26" viewBox="0 0 25 26" fill="none" xmlns="http://www.w3.org/2000/svg">
<symbol id="icon" viewBox="0 0 25 26">
<path d="M12.4999 24.4583L8.33325 20.2917H16.6666L12.4999 24.4583ZM20.8333 3.625C21.3858 3.625 21.9157 3.84449 22.3064 4.23519C22.6971 4.62589 22.9166 5.1558 22.9166 5.70833V16.125C22.9166 16.6775 22.6971 17.2074 22.3064 17.5981C21.9157 17.9888 21.3858 18.2083 20.8333 18.2083H4.16659C3.61405 18.2083 3.08415 17.9888 2.69345 17.5981C2.30275 17.2074 2.08325 16.6775 2.08325 16.125V5.70833C2.08325 5.1558 2.30275 4.62589 2.69345 4.23519C3.08415 3.84449 3.61405 3.625 4.16659 3.625H20.8333ZM5.20825 15.0833H19.7916L15.1041 8.83333L11.4583 13.5208L8.85409 10.3958L5.20825 15.0833Z"/>
</symbol>
</svg>
