<svg width="90" height="90" viewBox="0 0 90 90" fill="none" xmlns="http://www.w3.org/2000/svg">
<symbol id="icon" viewBox="0 0 90 90">
<path fill-rule="evenodd" clip-rule="evenodd" d="M45 87.9775C68.7358 87.9775 87.9775 68.7358 87.9775 45C87.9775 21.2642 68.7358 2.02247 45 2.02247C21.2642 2.02247 2.02247 21.2642 2.02247 45C2.02247 68.7358 21.2642 87.9775 45 87.9775ZM45 90C69.8528 90 90 69.8528 90 45C90 20.1472 69.8528 0 45 0C20.1472 0 0 20.1472 0 45C0 69.8528 20.1472 90 45 90Z" fill="#FF8F2C"/>
<path d="M74.0312 54.9199C74.0312 54.9199 71.0987 54.7023 67.682 51.2563C64.5573 48.3057 56.3229 40.9148 56.3229 40.9148C55.2531 40.1896 53.1557 38.8139 51.5414 40.1306C50.3297 41.0905 49.9989 42.7904 50.7621 44.1346L55.9957 51.8536L50.7728 53.9086L38.638 60.3678L27.5144 62.3903H22.4285C22.4285 62.3903 19.2139 62.3903 19.2139 64.981C19.2139 67.4858 21.5425 67.778 22.5538 67.778C23.565 67.778 35.3487 67.8157 35.6626 67.778L49.8153 68.6548L58.3469 68.9926C64.92 68.4869 70.9874 63.9364 74.0312 54.9199Z" stroke="#FF8F2C" stroke-width="2" stroke-linecap="round" stroke-linejoin="round"/>
<path d="M49.1535 54.6432L37.3469 50.1189C37.3469 50.1189 33.5763 48.9145 32.7824 51.0096C32.2742 52.2452 32.864 53.6589 34.0996 54.1671C34.1743 54.1977 34.2503 54.2247 34.3276 54.2478L43.3864 57.4945L30.862 53.0966C30.862 53.0966 27.0212 51.5658 26.1027 54.1821C25.0926 57.0594 28.476 57.7746 28.476 57.7746L38.8968 60.2299L24.5121 56.8406C24.5121 56.8406 22.166 56.1918 21.5366 58.3568C20.9198 60.4814 22.864 61.1969 23.7757 61.443C25.1565 61.8158 27.5143 62.3903 27.5143 62.3903" stroke="#FF8F2C" stroke-width="2" stroke-linecap="round" stroke-linejoin="round"/>
<path fill-rule="evenodd" clip-rule="evenodd" d="M28.003 19.6241C27.6992 19.5787 27.4161 19.7883 27.3708 20.0921L27.1245 21.7423L25.4742 21.4961C25.1704 21.4507 24.8874 21.6602 24.8421 21.9641C24.7967 22.2679 25.0062 22.5509 25.31 22.5962L26.9603 22.8425L26.3036 27.2432L24.6533 26.9969C24.3495 26.9516 24.0664 27.1611 24.0211 27.4649C23.9758 27.7687 24.1853 28.0518 24.4891 28.0971L26.1394 28.3434L25.4826 32.7441L23.8323 32.4978C23.5285 32.4525 23.2455 32.662 23.2002 32.9658C23.1548 33.2696 23.3643 33.5526 23.6682 33.598L25.3184 33.8443L24.6617 38.245L23.0114 37.9987C22.7076 37.9533 22.4246 38.1629 22.3792 38.4667C22.3339 38.7705 22.5434 39.0535 22.8472 39.0989L24.4975 39.3451L24.2512 40.9954C24.2058 41.2992 24.4154 41.5823 24.7192 41.6276C25.023 41.6729 25.306 41.4634 25.3514 41.1596L25.5976 39.5093L29.9983 40.1661L29.7521 41.8164C29.7067 42.1202 29.9163 42.4032 30.2201 42.4485C30.5239 42.4939 30.8069 42.2844 30.8522 41.9805L31.0985 40.3303L35.4992 40.987L35.2529 42.6373C35.2076 42.9411 35.4171 43.2241 35.7209 43.2695C36.0247 43.3148 36.3078 43.1053 36.3531 42.8015L36.5994 41.1512L41.0001 41.808L40.7538 43.4582C40.7085 43.7621 40.918 44.0451 41.2218 44.0904C41.5256 44.1358 41.8087 43.9262 41.854 43.6224L42.1003 41.9722L43.7505 42.2185C44.0543 42.2638 44.3374 42.0543 44.3827 41.7505C44.4281 41.4467 44.2185 41.1636 43.9147 41.1183L42.2645 40.872L42.9212 36.4713L44.5715 36.7176C44.8753 36.7629 45.1583 36.5534 45.2037 36.2496C45.249 35.9458 45.0395 35.6627 44.7357 35.6174L43.0854 35.3711L43.7422 30.9704L45.3924 31.2167C45.6962 31.262 45.9793 31.0525 46.0246 30.7487C46.07 30.4449 45.8604 30.1619 45.5566 30.1165L43.9064 29.8702L44.5631 25.4695L46.2134 25.7158C46.5172 25.7612 46.8002 25.5516 46.8456 25.2478C46.8909 24.944 46.6814 24.661 46.3776 24.6157L44.7273 24.3694L44.9736 22.7191C45.0189 22.4153 44.8094 22.1323 44.5056 22.0869C44.2018 22.0416 43.9188 22.2511 43.8734 22.5549L43.6271 24.2052L39.2264 23.5484L39.4727 21.8982C39.5181 21.5944 39.3085 21.3113 39.0047 21.266C38.7009 21.2206 38.4179 21.4302 38.3725 21.734L38.1263 23.3842L33.7256 22.7275L33.9718 21.0772C34.0172 20.7734 33.8076 20.4904 33.5038 20.445C33.2 20.3997 32.917 20.6092 32.8717 20.913L32.6254 22.5633L28.2247 21.9065L28.471 20.2563C28.5163 19.9525 28.3068 19.6694 28.003 19.6241ZM41.1643 40.7078L41.821 36.3071L37.4203 35.6504L36.7636 40.0511L41.1643 40.7078ZM35.6634 39.8869L36.3202 35.4862L31.9195 34.8294L31.2627 39.2301L35.6634 39.8869ZM30.1625 39.0659L30.8193 34.6652L26.4186 34.0085L25.7618 38.4092L30.1625 39.0659ZM30.9835 33.565L26.5828 32.9083L27.2395 28.5076L31.6402 29.1643L30.9835 33.565ZM36.4844 34.386L32.0837 33.7292L32.7404 29.3285L37.1411 29.9853L36.4844 34.386ZM41.9852 35.2069L37.5845 34.5502L38.2413 30.1495L42.642 30.8062L41.9852 35.2069ZM42.8062 29.7061L43.4629 25.3054L39.0622 24.6486L38.4055 29.0493L42.8062 29.7061ZM37.3053 28.8851L37.9621 24.4844L33.5614 23.8277L32.9046 28.2284L37.3053 28.8851ZM31.8044 28.0642L32.4612 23.6635L28.0605 23.0067L27.4037 27.4074L31.8044 28.0642Z" fill="#FF8F2C"/>
</symbol>
</svg>
