<svg width="32" height="32" viewBox="0 0 32 32" fill="none" xmlns="http://www.w3.org/2000/svg">
<g clip-path="url(#clip0_12_5)">
<path d="M0.531647 8.66121C0.800421 8.46286 1.10387 8.24167 1.41038 8.02951C1.76562 7.78361 2.13491 7.54288 2.46615 7.36178C2.63167 7.27129 2.79668 7.19069 2.95192 7.13159C3.09893 7.07562 3.27547 7.02375 3.45245 7.02375C4.06571 7.02375 4.60903 7.38194 4.8318 7.97009L0.531647 8.66121ZM0.531647 8.66121C0.668672 6.55035 1.24337 4.63618 2.29258 3.20021C3.49127 1.55965 5.33869 0.5 7.99995 0.5C10.2769 0.5 12.1466 1.15614 13.4414 2.33461C14.73 3.50751 15.5 5.24349 15.5 7.51188C15.5 7.5757 15.4933 7.64481 15.4816 7.73224C15.4786 7.75433 15.475 7.77995 15.471 7.80774C15.4702 7.81302 15.4695 7.81839 15.4687 7.82383L10.2738 12.1528C9.14755 12.0598 8.11425 11.7907 7.21954 11.2042C6.27885 10.5875 5.44692 9.59074 4.83197 7.97054L0.531647 8.66121ZM26.4381 30.599L26.4391 30.6C27.0451 31.1444 27.8187 31.5 28.6181 31.5C30.163 31.5 31.5 30.3738 31.5 28.9031C31.5 28.0223 31.143 27.1454 30.6885 26.2612C27.1517 19.6605 24.8458 15.6998 22.9516 13.386C22.0093 12.2349 21.191 11.5197 20.4007 11.0892C19.6195 10.6636 18.8363 10.5 17.9337 10.5C17.5394 10.5 17.1529 10.5572 16.765 10.648L12.9546 13.8232C12.6664 14.4834 12.5 15.1937 12.5 15.9319C12.5 16.7355 12.5796 17.2974 12.8581 17.878C13.1444 18.4747 13.66 19.1311 14.6137 20.077C15.7219 21.1761 17.3569 22.606 19.7769 24.7226C21.5447 26.2687 23.7315 28.1813 26.4381 30.599Z" fill="white" stroke="black"/>
</g>
<defs>
<clipPath id="clip0_12_5">
<rect width="32" height="32" fill="white" transform="matrix(1 0 0 -1 0 32)"/>
</clipPath>
</defs>
</svg>
