<svg width="15" height="15" viewBox="0 0 15 15" fill="currentcolor" xmlns="http://www.w3.org/2000/svg">
<symbol id="icon" viewBox="0 0 15 15">
<path d="M10.5554 2H2.78571C2.57733 2 2.37748 2.08278 2.23013 2.23013C2.08278 2.37748 2 2.57733 2 2.78571V12.2143C2 12.4227 2.08278 12.6225 2.23013 12.7699C2.37748 12.9172 2.57733 13 2.78571 13H12.2143C12.4225 12.9994 12.622 12.9164 12.7692 12.7692C12.9164 12.622 12.9994 12.4225 13 12.2143V4.44455L10.5554 2ZM3.96429 5.53571V3.96429H8.67857V5.53571H3.96429ZM9.46208 9.94946C9.4442 10.3297 9.31622 10.6965 9.09372 11.0054C8.87121 11.3142 8.56377 11.5518 8.20876 11.6891C7.85376 11.8265 7.46649 11.8577 7.09405 11.7791C6.72162 11.7004 6.38006 11.5152 6.11092 11.2461C5.84177 10.9769 5.65663 10.6353 5.57802 10.2629C5.49941 9.89043 5.5307 9.50316 5.6681 9.14817C5.8055 8.79318 6.04308 8.48577 6.35196 8.2633C6.66083 8.04083 7.02769 7.9129 7.40792 7.89507C7.6809 7.88305 7.95339 7.92796 8.20807 8.02696C8.46275 8.12595 8.69404 8.27686 8.88724 8.47008C9.08044 8.6633 9.23132 8.89461 9.33028 9.1493C9.42924 9.40399 9.47413 9.67649 9.46208 9.94946Z" />
</symbol>
</svg>
