<svg width="25" height="26" viewBox="0 0 25 26" fill="none" xmlns="http://www.w3.org/2000/svg">
<symbol id="icon" viewBox="0 0 25 26">
<path d="M6.24992 20.2917C6.24992 20.8442 6.46941 21.3741 6.86011 21.7648C7.25081 22.1555 7.78072 22.375 8.33325 22.375H16.6666C17.2191 22.375 17.749 22.1555 18.1397 21.7648C18.5304 21.3741 18.7499 20.8442 18.7499 20.2917V7.79167H6.24992V20.2917ZM8.81242 12.875L10.2812 11.4062L12.4999 13.6146L14.7083 11.4062L16.177 12.875L13.9687 15.0833L16.177 17.2917L14.7083 18.7604L12.4999 16.5521L10.2916 18.7604L8.82284 17.2917L11.0312 15.0833L8.81242 12.875ZM16.1458 4.66667L15.1041 3.625H9.89575L8.85409 4.66667H5.20825V6.75H19.7916V4.66667H16.1458Z" />
</symbol>
</svg>
