<svg width="30" height="30" viewBox="0 0 30 30" fill="none" xmlns="http://www.w3.org/2000/svg">
  <symbol id="icon" viewBox="0 0 30 30">
    <path
      d="M21.5625 22.5H26.25C26.6042 22.5 26.9013 22.62 27.1413 22.86C27.3813 23.1 27.5008 23.3967 27.5 23.75C27.5 24.1042 27.38 24.4012 27.14 24.6412C26.9 24.8812 26.6033 25.0008 26.25 25H19.0625L21.5625 22.5ZM6.46876 25C6.30209 25 6.14042 24.9688 5.98376 24.9062C5.82709 24.8437 5.68667 24.75 5.56251 24.625L3.28126 22.3438C2.80209 21.8646 2.55709 21.2708 2.54626 20.5625C2.53542 19.8542 2.77001 19.25 3.25001 18.75L17 4.5C17.4792 4 18.0675 3.75 18.765 3.75C19.4625 3.75 20.0513 3.98958 20.5313 4.46875L26.75 10.6875C27.2292 11.1667 27.4688 11.7604 27.4688 12.4688C27.4688 13.1771 27.2292 13.7708 26.75 14.25L16.625 24.625C16.5 24.75 16.3596 24.8437 16.2038 24.9062C16.0479 24.9688 15.8863 25 15.7188 25H6.46876ZM15.1875 22.5L25 12.4375L18.8125 6.25L5.00001 20.5L7.00001 22.5H15.1875Z"
      fill="" />
  </symbol>
</svg>