<svg width="20" height="20" viewBox="0 0 20 20" fill="none" xmlns="http://www.w3.org/2000/svg">
  <symbol id="icon" viewBox="0 0 20 20">
    <path fill-rule="evenodd" clip-rule="evenodd"
      d="M1.125 3.68031C1.125 3.06071 1.35238 2.42762 1.89 1.89C2.42771 1.3523 3.32584 1.12492 3.68063 1.125H13.9956C14.2583 1.12496 14.5187 1.17665 14.7614 1.27714C15.0041 1.37762 15.2246 1.52492 15.4103 1.71062L18.2893 4.58959C18.475 4.77534 18.6224 4.99591 18.7229 5.23859C18.8233 5.48123 18.875 5.74129 18.875 6.00391V16.3195L18.875 16.3218C18.873 16.9983 18.6033 17.6466 18.1249 18.1249C17.6466 18.6033 16.9983 18.873 16.3218 18.875L16.3195 18.875H3.68063C3.00749 18.8751 2.34935 18.6026 1.87337 18.1266C1.39738 17.6507 1.1249 16.9927 1.125 16.3195M13.996 2.625H3.68031C3.40505 2.62494 3.12866 2.73939 2.93403 2.93403C2.73939 3.12866 2.62494 3.40505 2.625 3.68031V16.3195C2.62494 16.5948 2.73939 16.8713 2.93403 17.066C3.12866 17.2606 3.40505 17.3751 3.68031 17.375H16.3184C16.5982 17.3739 16.8663 17.2622 17.0643 17.0643C17.2622 16.8663 17.3739 16.5982 17.375 16.3184V6.00391C17.375 5.93824 17.3621 5.8731 17.337 5.81243C17.3118 5.75176 17.275 5.69663 17.2286 5.65019L14.3498 2.77141C14.3034 2.72498 14.2482 2.68815 14.1876 2.66303C14.1269 2.63791 14.0616 2.62499 13.996 2.625Z"
      fill="" />
    <path fill-rule="evenodd" clip-rule="evenodd"
      d="M5.5 5.5V7.75H11.75V5.5H5.5ZM4.40273 4.40273C4.66059 4.14487 5.01033 4 5.375 4H11.875C12.2397 4 12.5894 4.14487 12.8473 4.40273C13.1051 4.66059 13.25 5.01033 13.25 5.375V7.875C13.25 8.23967 13.1051 8.58941 12.8473 8.84727C12.5894 9.10513 12.2397 9.25 11.875 9.25H5.375C5.01033 9.25 4.66059 9.10513 4.40273 8.84727C4.14487 8.58941 4 8.23967 4 7.875V5.375C4 5.01033 4.14487 4.66059 4.40273 4.40273Z"
      fill="" />
    <path fill-rule="evenodd" clip-rule="evenodd"
      d="M10.25 15.5C11.2165 15.5 12 14.7165 12 13.75C12 12.7835 11.2165 12 10.25 12C9.2835 12 8.5 12.7835 8.5 13.75C8.5 14.7165 9.2835 15.5 10.25 15.5ZM10.25 17C12.0449 17 13.5 15.5449 13.5 13.75C13.5 11.9551 12.0449 10.5 10.25 10.5C8.45507 10.5 7 11.9551 7 13.75C7 15.5449 8.45507 17 10.25 17Z"
      fill="" />
  </symbol>
</svg>