<svg width="169" height="30" viewBox="0 0 169 30" fill="none" xmlns="http://www.w3.org/2000/svg">
<path fill-rule="evenodd" clip-rule="evenodd" d="M77.2059 29.9996V26.4702H73.6765V22.9407H70.1471V2.99957C70.1471 1.12457 71.2501 -0.000429899 73.1251 -0.000429899L78.9706 -0.000335664V18.7498H83.25V-0.000488281L90.5735 -0.000417203V18.7498H94.853V-0.000416756L100.776 -0.000475228C102.75 -0.000154402 103.676 1.12485 103.676 2.99948V22.9407H100.147V26.4702H96.6177V29.9996H88.8088V27.3525H86.9118H85.0147V29.9996H77.2059ZM118.235 8.82332V15.8821H114.706V8.82332H118.235ZM105.882 2.99979V29.9998H114.706V22.941H123.529V19.4116H127.059V3.5292H123.529V-0.000213847H108.75C106.875 -0.000213847 105.882 1.12479 105.882 2.99979ZM129.265 29.9998V22.941H132.794V7.05861H129.265V-0.000213847H145.147V7.05861H141.618V22.941H145.147V29.9998H129.265ZM147.353 29.9998V21.1763H150V17.6248H152.647V15.8821V13.8748H150V10.588H147.353V-0.000213838H156.176V8.82332L157.941 10.588L159.706 8.82332V-0.000213838H165.375C167.25 -0.00032538 168.529 1.1249 168.529 2.99979V10.588H165.75V13.8748H163.125V15.7498V17.6248H165.75V21.1763H168.529V26.9998C168.529 28.8748 167.625 29.9998 165.375 29.9998H159.706V22.941L157.941 21.1763L156.176 22.941V29.9998H147.353ZM59.1177 8.82335V15.8822H55.5882V8.82335H59.1177ZM46.7647 2.99982V29.9998H55.5882V23.9336H59.1177V29.9998H67.9412V2.99982C67.9412 1.12467 66.7499 -2.74442e-05 64.8749 -0.000179588H49.8749C47.9999 -0.000179588 46.7647 1.12482 46.7647 2.99982ZM35.8063 14.7793V8.82338H32.2188V14.7793H35.8063ZM32.2748 23.0513H32.2188V29.9998H23.25V-0.000154436H41.1875V3.52926H44.775V17.7572L41.1875 21.2866L44.775 24.816V29.9998H35.8063V26.5256L32.2748 23.0513ZM12.3529 8.82332V21.1763H8.82353V8.82332H12.3529ZM0 2.99979V29.9998H17.625V26.6248H21.1765V3.37479L17.625 3.37479V-0.000213822H3C1.125 -0.000213822 0 1.12479 0 2.99979Z" fill="#FF8F2C"/>
</svg>
